<?xml version="1.0" standalone="no"?><!DOCTYPE svg PUBLIC "-//W3C//DTD SVG 1.1//EN" "http://www.w3.org/Graphics/SVG/1.1/DTD/svg11.dtd"><svg t="1581224438437" class="icon" viewBox="0 0 1024 1024" version="1.1" xmlns="http://www.w3.org/2000/svg" p-id="3019" xmlns:xlink="http://www.w3.org/1999/xlink" width="48" height="48"><defs><style type="text/css"></style></defs><path d="M919.256367 971.476126c-19.278038 0-34.907718-15.628656-34.907718-34.907718 0-205.311569-167.032985-372.344554-372.344554-372.344554-205.310545 0-372.34353 167.032985-372.34353 372.344554 0 19.279062-15.628656 34.907718-34.906694 34.907718s-34.906694-15.628656-34.906694-34.907718c0-59.676214 11.694613-117.585077 34.761292-172.120003 22.271065-52.655964 54.14787-99.939227 94.743669-140.534002 40.595799-40.595799 87.878037-72.472604 140.535026-94.743669 54.533902-23.065655 112.442765-34.761292 172.118979-34.761292 59.676214 0 117.585077 11.694613 172.120003 34.761292 52.655964 22.271065 99.939227 54.14787 140.534002 94.743669 40.595799 40.595799 72.472604 87.878037 94.743669 140.534002 23.065655 54.533902 34.761292 112.443789 34.761292 172.120003C954.164085 955.84747 938.536453 971.476126 919.256367 971.476126z" p-id="3020"></path><path d="M512.254965 564.4737c-68.380872 0-132.665916-26.625954-181.012045-74.973107-48.347153-48.347153-74.974131-112.632197-74.974131-181.013069 0-68.371656 26.625954-132.653629 74.973107-181.003854 48.350225-48.353297 112.635269-74.983347 181.013069-74.983347 68.378824 0 132.664892 26.629026 181.014093 74.983347 48.347153 48.350225 74.973107 112.632197 74.973107 181.003854 0 68.380872-26.626978 132.665916-74.974131 181.013069S580.635837 564.4737 512.254965 564.4737zM512.254965 122.315759c-102.654761 0-186.171765 83.51598-186.171765 186.171765 0 102.654761 83.517004 186.171765 186.171765 186.171765 102.655784 0 186.171765-83.517004 186.171765-186.171765C698.42673 205.831739 614.91075 122.315759 512.254965 122.315759z" p-id="3021"></path></svg>